<svg xmlns="http://www.w3.org/2000/svg" viewBox="0 -960 2880 960" fill="#666666">
  <path d="M320-240h320v-80H320v80Zm0-160h320v-80H320v80ZM240-80q-33 0-56.5-23.5T160-160v-640q0-33 23.5-56.5T240-880h320l240 240v480q0 33-23.5 56.5T720-80H240Zm280-520v-200H240v640h480v-440H520ZM240-800v200-200 640-640Z" transform="translate(1920, 0)" />
  <path d="M200-120v-640q0-33 23.5-56.5T280-840h400q33 0 56.5 23.5T760-760v640L480-240 200-120Zm80-122 200-86 200 86v-518H280v518Zm0-518h400-400Z" transform="translate(0, 0)" />
  <path d="m256-200-56-56 224-224-224-224 56-56 224 224 224-224 56 56-224 224 224 224-56 56-224-224-224 224Z" transform="translate(960, 0)" />
</svg>
